<svg xmlns="http://www.w3.org/2000/svg" viewBox="0 0 900 1125" role="img" aria-labelledby="title desc">
  <title id="title">Placeholder portrait with a little sparkle</title>
  <desc id="desc">An abstract portrait silhouette surrounded by star-like accents.</desc>
  <defs>
    <linearGradient id="bg" x1="0" x2="1" y1="0" y2="1"><stop stop-color="#f59f8f"/><stop offset=".48" stop-color="#d8c8ed"/><stop offset="1" stop-color="#f5a9b8"/></linearGradient>
  </defs>
  <rect width="900" height="1125" fill="url(#bg)"/>
  <g fill="#fff" opacity=".85"><path d="m150 250 9 27 27 9-27 9-9 27-9-27-27-9 27-9z"/><path d="m735 420 8 24 24 8-24 8-8 24-8-24-24-8 24-8z"/><path d="m180 760 7 21 21 7-21 7-7 21-7-21-21-7 21-7z"/></g>
  <circle cx="450" cy="370" r="160" fill="#4c345f" opacity=".94"/>
  <path d="M178 930c35-242 143-352 272-352s237 110 272 352z" fill="#4c345f" opacity=".94"/>
  <path d="M302 287c55-112 219-151 314-25-78-34-148-29-209 1-40 20-72 27-105 24z" fill="#4c345f"/>
  <path d="M356 471c62 38 127 38 189 0" fill="none" stroke="#f59f8f" stroke-width="13" stroke-linecap="round"/>
</svg>
