<svg xmlns="http://www.w3.org/2000/svg" viewBox="0 0 900 1125" role="img" aria-labelledby="title desc">
  <title id="title">Warm light placeholder</title>
  <desc id="desc">Abstract portrait placeholder in pink and blue light.</desc>
  <defs>
    <linearGradient id="bg" x1="0" y1="0" x2="1" y2="1"><stop offset="0" stop-color="#5bcefa"/><stop offset=".48" stop-color="#f5a9b8"/><stop offset="1" stop-color="#f59f8f"/></linearGradient>
    <radialGradient id="glow" cx=".2" cy=".2" r=".9"><stop offset="0" stop-color="#fff" stop-opacity=".86"/><stop offset="1" stop-color="#fff" stop-opacity="0"/></radialGradient>
  </defs>
  <rect width="900" height="1125" fill="url(#bg)"/><circle cx="150" cy="175" r="330" fill="url(#glow)"/><circle cx="680" cy="930" r="320" fill="#43324f" opacity=".25"/>
  <path d="M216 1125c18-244 104-382 250-414 144 32 235 170 252 414Z" fill="#28223a" opacity=".82"/><ellipse cx="465" cy="425" rx="152" ry="184" fill="#f6c7bd"/>
  <path d="M315 425c13-164 79-239 173-239 121 0 166 109 166 231-47-72-108-102-177-91-45 7-101 43-162 99Z" fill="#4b304b"/>
  <circle cx="408" cy="420" r="10" fill="#28223a"/><circle cx="522" cy="420" r="10" fill="#28223a"/><path d="M426 507c28 20 61 20 90 0" fill="none" stroke="#b65f76" stroke-linecap="round" stroke-width="9"/>
</svg>
