<svg xmlns="http://www.w3.org/2000/svg" viewBox="0 0 900 1125" role="img" aria-labelledby="title desc">
  <title id="title">Soft focus placeholder</title><desc id="desc">Abstract portrait placeholder against a lavender background.</desc>
  <defs><linearGradient id="bg" x1="0" y1="1" x2="1" y2="0"><stop offset="0" stop-color="#d9c6ee"/><stop offset=".55" stop-color="#fff5f8"/><stop offset="1" stop-color="#f5a9b8"/></linearGradient></defs>
  <rect width="900" height="1125" fill="url(#bg)"/><path d="M0 780c168-140 270-88 397-18 118 66 269 94 503-54v417H0Z" fill="#9b76be" opacity=".3"/>
  <path d="M170 1125c52-298 182-441 332-441s282 143 326 441Z" fill="#fff" opacity=".8"/><ellipse cx="493" cy="431" rx="165" ry="198" fill="#d88b9d" opacity=".92"/>
  <path d="M322 446c0-197 65-298 189-298 112 0 186 103 186 294-53-103-116-144-191-123-74 20-122 74-184 127Z" fill="#4a3159"/>
  <path d="M393 443c0-14 11-25 25-25s25 11 25 25-11 25-25 25-25-11-25-25Zm130 0c0-14 11-25 25-25s25 11 25 25-11 25-25 25-25-11-25-25Z" fill="#30243d"/><path d="M445 547c33 23 73 23 105 0" fill="none" stroke="#8b496e" stroke-linecap="round" stroke-width="9"/>
</svg>
